ply
format ascii 1.0
comment Created by Blender 2.80 (sub 75) - www.blender.org, source file: ''
element vertex 98
property float x
property float y
property float z
property float nx
property float ny
property float nz
element face 192
property list uchar uint vertex_indices
end_header
0.288675 0.288675 -0.288675 0.577349 0.577349 -0.577349
0.144338 0.338502 -0.338502 0.303568 0.673727 -0.673727
0.169251 0.438986 -0.169251 0.340281 0.876583 -0.340281
0.338502 0.338502 -0.144338 0.673727 0.673727 -0.303568
0.000000 0.353553 -0.353553 0.000000 0.707083 -0.707083
0.000000 0.467707 -0.176777 0.000000 0.932554 -0.360942
-0.144338 0.338502 -0.338502 -0.303568 0.673727 -0.673727
-0.169251 0.438986 -0.169251 -0.340281 0.876583 -0.340281
-0.288675 0.288675 -0.288675 -0.577349 0.577349 -0.577349
-0.338502 0.338502 -0.144338 -0.673727 0.673727 -0.303568
0.176777 0.467707 0.000000 0.360942 0.932554 0.000000
0.353553 0.353553 0.000000 0.707083 0.707083 0.000000
0.000000 0.500000 0.000000 0.000000 1.000000 0.000000
-0.176777 0.467707 0.000000 -0.360942 0.932554 0.000000
-0.353553 0.353553 0.000000 -0.707083 0.707083 0.000000
0.169251 0.438986 0.169251 0.340281 0.876583 0.340281
0.338502 0.338502 0.144338 0.673727 0.673727 0.303568
0.000000 0.467707 0.176777 0.000000 0.932554 0.360942
-0.169251 0.438986 0.169251 -0.340281 0.876583 0.340281
-0.338502 0.338502 0.144338 -0.673727 0.673727 0.303568
0.144338 0.338502 0.338502 0.303568 0.673727 0.673727
0.288675 0.288675 0.288675 0.577349 0.577349 0.577349
0.000000 0.353553 0.353553 0.000000 0.707083 0.707083
-0.144338 0.338502 0.338502 -0.303568 0.673727 0.673727
-0.288675 0.288675 0.288675 -0.577349 0.577349 0.577349
-0.338502 0.144338 -0.338502 -0.673727 0.303568 -0.673727
-0.438986 0.169251 -0.169251 -0.876583 0.340281 -0.340281
-0.353553 0.000000 -0.353553 -0.707083 0.000000 -0.707083
-0.467707 0.000000 -0.176777 -0.932554 0.000000 -0.360942
-0.338502 -0.144338 -0.338502 -0.673727 -0.303568 -0.673727
-0.438986 -0.169251 -0.169251 -0.876583 -0.340281 -0.340281
-0.288675 -0.288675 -0.288675 -0.577349 -0.577349 -0.577349
-0.338502 -0.338502 -0.144338 -0.673727 -0.673727 -0.303568
-0.467707 0.176777 0.000000 -0.932554 0.360942 0.000000
-0.500000 0.000000 0.000000 -1.000000 0.000000 0.000000
-0.467707 -0.176777 0.000000 -0.932554 -0.360942 0.000000
-0.353553 -0.353553 0.000000 -0.707083 -0.707083 0.000000
-0.438986 0.169251 0.169251 -0.876583 0.340281 0.340281
-0.467707 0.000000 0.176777 -0.932554 0.000000 0.360942
-0.438986 -0.169251 0.169251 -0.876583 -0.340281 0.340281
-0.338502 -0.338502 0.144338 -0.673727 -0.673727 0.303568
-0.338502 0.144338 0.338502 -0.673727 0.303568 0.673727
-0.353553 0.000000 0.353553 -0.707083 0.000000 0.707083
-0.338502 -0.144338 0.338502 -0.673727 -0.303568 0.673727
-0.288675 -0.288675 0.288675 -0.577349 -0.577349 0.577349
-0.144338 -0.338502 -0.338502 -0.303568 -0.673727 -0.673727
-0.169251 -0.438986 -0.169251 -0.340281 -0.876583 -0.340281
0.000000 -0.353553 -0.353553 0.000000 -0.707083 -0.707083
0.000000 -0.467707 -0.176777 0.000000 -0.932554 -0.360942
0.144338 -0.338502 -0.338502 0.303568 -0.673727 -0.673727
0.169251 -0.438986 -0.169251 0.340281 -0.876583 -0.340281
0.288675 -0.288675 -0.288675 0.577349 -0.577349 -0.577349
0.338502 -0.338502 -0.144338 0.673727 -0.673727 -0.303568
-0.176777 -0.467707 0.000000 -0.360942 -0.932554 0.000000
0.000000 -0.500000 0.000000 0.000000 -1.000000 0.000000
0.176777 -0.467707 0.000000 0.360942 -0.932554 0.000000
0.353553 -0.353553 0.000000 0.707083 -0.707083 0.000000
-0.169251 -0.438986 0.169251 -0.340281 -0.876583 0.340281
0.000000 -0.467707 0.176777 0.000000 -0.932554 0.360942
0.169251 -0.438986 0.169251 0.340281 -0.876583 0.340281
0.338502 -0.338502 0.144338 0.673727 -0.673727 0.303568
-0.144338 -0.338502 0.338502 -0.303568 -0.673727 0.673727
0.000000 -0.353553 0.353553 0.000000 -0.707083 0.707083
0.144338 -0.338502 0.338502 0.303568 -0.673727 0.673727
0.288675 -0.288675 0.288675 0.577349 -0.577349 0.577349
0.338502 -0.144338 -0.338502 0.673727 -0.303568 -0.673727
0.438986 -0.169251 -0.169251 0.876583 -0.340281 -0.340281
0.353553 0.000000 -0.353553 0.707083 0.000000 -0.707083
0.467707 0.000000 -0.176777 0.932554 0.000000 -0.360942
0.338502 0.144338 -0.338502 0.673727 0.303568 -0.673727
0.438986 0.169251 -0.169251 0.876583 0.340281 -0.340281
0.467707 -0.176777 0.000000 0.932554 -0.360942 0.000000
0.500000 0.000000 0.000000 1.000000 0.000000 0.000000
0.467707 0.176777 0.000000 0.932554 0.360942 0.000000
0.438986 -0.169251 0.169251 0.876583 -0.340281 0.340281
0.467707 0.000000 0.176777 0.932554 0.000000 0.360942
0.438986 0.169251 0.169251 0.876583 0.340281 0.340281
0.338502 -0.144338 0.338502 0.673727 -0.303568 0.673727
0.353553 0.000000 0.353553 0.707083 0.000000 0.707083
0.338502 0.144338 0.338502 0.673727 0.303568 0.673727
0.169251 -0.169251 -0.438986 0.340281 -0.340281 -0.876583
0.000000 -0.176777 -0.467707 0.000000 -0.360942 -0.932554
-0.169251 -0.169251 -0.438986 -0.340281 -0.340281 -0.876583
0.176777 0.000000 -0.467707 0.360942 0.000000 -0.932554
0.000000 0.000000 -0.500000 0.000000 0.000000 -1.000000
-0.176777 0.000000 -0.467707 -0.360942 0.000000 -0.932554
0.169251 0.169251 -0.438986 0.340281 0.340281 -0.876583
0.000000 0.176777 -0.467707 0.000000 0.360942 -0.932554
-0.169251 0.169251 -0.438986 -0.340281 0.340281 -0.876583
0.169251 0.169251 0.438986 0.340281 0.340281 0.876583
0.000000 0.176777 0.467707 0.000000 0.360942 0.932554
-0.169251 0.169251 0.438986 -0.340281 0.340281 0.876583
0.176777 0.000000 0.467707 0.360942 0.000000 0.932554
0.000000 0.000000 0.500000 0.000000 0.000000 1.000000
-0.176777 0.000000 0.467707 -0.360942 0.000000 0.932554
0.169251 -0.169251 0.438986 0.340281 -0.340281 0.876583
0.000000 -0.176777 0.467707 0.000000 -0.360942 0.932554
-0.169251 -0.169251 0.438986 -0.340281 -0.340281 0.876583
3 0 1 2
3 0 2 3
3 1 4 5
3 1 5 2
3 4 6 7
3 4 7 5
3 6 8 9
3 6 9 7
3 3 2 10
3 3 10 11
3 2 5 12
3 2 12 10
3 5 7 13
3 5 13 12
3 7 9 14
3 7 14 13
3 11 10 15
3 11 15 16
3 10 12 17
3 10 17 15
3 12 13 18
3 12 18 17
3 13 14 19
3 13 19 18
3 16 15 20
3 16 20 21
3 15 17 22
3 15 22 20
3 17 18 23
3 17 23 22
3 18 19 24
3 18 24 23
3 8 25 26
3 8 26 9
3 25 27 28
3 25 28 26
3 27 29 30
3 27 30 28
3 29 31 32
3 29 32 30
3 9 26 33
3 9 33 14
3 26 28 34
3 26 34 33
3 28 30 35
3 28 35 34
3 30 32 36
3 30 36 35
3 14 33 37
3 14 37 19
3 33 34 38
3 33 38 37
3 34 35 39
3 34 39 38
3 35 36 40
3 35 40 39
3 19 37 41
3 19 41 24
3 37 38 42
3 37 42 41
3 38 39 43
3 38 43 42
3 39 40 44
3 39 44 43
3 31 45 46
3 31 46 32
3 45 47 48
3 45 48 46
3 47 49 50
3 47 50 48
3 49 51 52
3 49 52 50
3 32 46 53
3 32 53 36
3 46 48 54
3 46 54 53
3 48 50 55
3 48 55 54
3 50 52 56
3 50 56 55
3 36 53 57
3 36 57 40
3 53 54 58
3 53 58 57
3 54 55 59
3 54 59 58
3 55 56 60
3 55 60 59
3 40 57 61
3 40 61 44
3 57 58 62
3 57 62 61
3 58 59 63
3 58 63 62
3 59 60 64
3 59 64 63
3 51 65 66
3 51 66 52
3 65 67 68
3 65 68 66
3 67 69 70
3 67 70 68
3 69 0 3
3 69 3 70
3 52 66 71
3 52 71 56
3 66 68 72
3 66 72 71
3 68 70 73
3 68 73 72
3 70 3 11
3 70 11 73
3 56 71 74
3 56 74 60
3 71 72 75
3 71 75 74
3 72 73 76
3 72 76 75
3 73 11 16
3 73 16 76
3 60 74 77
3 60 77 64
3 74 75 78
3 74 78 77
3 75 76 79
3 75 79 78
3 76 16 21
3 76 21 79
3 51 49 80
3 51 80 65
3 49 47 81
3 49 81 80
3 47 45 82
3 47 82 81
3 45 31 29
3 45 29 82
3 65 80 83
3 65 83 67
3 80 81 84
3 80 84 83
3 81 82 85
3 81 85 84
3 82 29 27
3 82 27 85
3 67 83 86
3 67 86 69
3 83 84 87
3 83 87 86
3 84 85 88
3 84 88 87
3 85 27 25
3 85 25 88
3 69 86 1
3 69 1 0
3 86 87 4
3 86 4 1
3 87 88 6
3 87 6 4
3 88 25 8
3 88 8 6
3 21 20 89
3 21 89 79
3 20 22 90
3 20 90 89
3 22 23 91
3 22 91 90
3 23 24 41
3 23 41 91
3 79 89 92
3 79 92 78
3 89 90 93
3 89 93 92
3 90 91 94
3 90 94 93
3 91 41 42
3 91 42 94
3 78 92 95
3 78 95 77
3 92 93 96
3 92 96 95
3 93 94 97
3 93 97 96
3 94 42 43
3 94 43 97
3 77 95 63
3 77 63 64
3 95 96 62
3 95 62 63
3 96 97 61
3 96 61 62
3 97 43 44
3 97 44 61
