ply
format ascii 1.0
comment Created by Blender 2.80 (sub 75) - www.blender.org, source file: ''
element vertex 20
property float x
property float y
property float z
property float nx
property float ny
property float nz
property float s
property float t
element face 12
property list uchar uint vertex_indices
end_header
0.500000 0.500000 0.500000 0.577349 0.577349 0.577349 0.375000 0.000000
-0.500000 0.500000 0.500000 -0.577349 0.577349 0.577349 0.625000 0.000000
-0.500000 -0.500000 0.500000 -0.577349 -0.577349 0.577349 0.625000 0.250000
0.500000 -0.500000 0.500000 0.577349 -0.577349 0.577349 0.375000 0.250000
0.500000 -0.500000 -0.500000 0.577349 -0.577349 -0.577349 0.375000 0.250000
0.500000 -0.500000 0.500000 0.577349 -0.577349 0.577349 0.625000 0.250000
-0.500000 -0.500000 0.500000 -0.577349 -0.577349 0.577349 0.625000 0.500000
-0.500000 -0.500000 -0.500000 -0.577349 -0.577349 -0.577349 0.375000 0.500000
-0.500000 0.500000 0.500000 -0.577349 0.577349 0.577349 0.625000 0.750000
-0.500000 0.500000 -0.500000 -0.577349 0.577349 -0.577349 0.375000 0.750000
0.500000 0.500000 -0.500000 0.577349 0.577349 -0.577349 0.625000 0.750000
0.500000 -0.500000 -0.500000 0.577349 -0.577349 -0.577349 0.625000 1.000000
-0.500000 -0.500000 -0.500000 -0.577349 -0.577349 -0.577349 0.375000 1.000000
0.500000 0.500000 -0.500000 0.577349 0.577349 -0.577349 0.125000 0.500000
0.500000 0.500000 0.500000 0.577349 0.577349 0.577349 0.375000 0.500000
0.500000 -0.500000 0.500000 0.577349 -0.577349 0.577349 0.375000 0.750000
0.500000 -0.500000 -0.500000 0.577349 -0.577349 -0.577349 0.125000 0.750000
-0.500000 0.500000 -0.500000 -0.577349 0.577349 -0.577349 0.625000 0.500000
-0.500000 0.500000 0.500000 -0.577349 0.577349 0.577349 0.875000 0.500000
0.500000 0.500000 0.500000 0.577349 0.577349 0.577349 0.875000 0.750000
3 0 1 2
3 0 2 3
3 4 5 6
3 4 6 7
3 7 6 8
3 7 8 9
3 9 10 11
3 9 11 12
3 13 14 15
3 13 15 16
3 17 18 19
3 17 19 10
